<svg width="757" height="634" viewBox="0 0 757 634" fill="none" xmlns="http://www.w3.org/2000/svg">
<path fill-rule="evenodd" clip-rule="evenodd" d="M251.647 139.349C244.985 164.168 228.445 183.818 210.904 202.036C193.615 219.992 175.215 238.398 151.787 243.065C128.284 247.746 104.349 240.308 84.5832 227.197C66.0576 214.909 56.9383 193.224 46.1661 173.005C34.6963 151.478 17.432 131.078 19.9714 105.927C22.5642 80.2477 40.5444 58.6042 59.4256 41.6818C77.098 25.8427 99.1008 17.4803 121.693 14.7582C143.112 12.1775 162.834 19.8008 182.982 26.7947C206.747 35.0438 235.77 36.8919 249.287 59.0483C263.093 81.6799 258.822 112.621 251.647 139.349Z" fill="#FFFF99" fill-opacity="0.79"/>
<path fill-rule="evenodd" clip-rule="evenodd" d="M630.921 284.079C665.267 299.458 689.851 327.922 712.134 357.504C734.096 386.66 756.452 417.527 757.776 452.485C759.104 487.553 742.809 520.44 719.275 545.987C697.217 569.93 663.75 578.096 632.02 588.992C598.236 600.594 564.743 620.836 528.962 611.342C492.43 601.648 465.296 570.639 445.198 539.419C426.386 510.198 419.387 476.447 420.681 443.148C421.907 411.579 437.496 384.827 452.273 357.311C469.703 324.858 479.094 283.318 514.261 268.902C550.182 254.177 593.933 267.516 630.921 284.079Z" fill="#DE6AA4"/>
<path d="M587.938 162.553C587.651 160.596 587.443 159.943 584.994 158.821C574.756 154.567 536.411 153.966 525.34 153.836C525.379 151.704 524.886 149.596 523.907 147.702C519.765 143.5 493.272 143.996 487.645 142.848C487.124 142.848 487.176 142.848 487.046 142.378C485.718 139.116 485.379 128.18 483.217 124.369C479.179 117.218 463.862 113.12 454.405 119.88C449.527 118.407 444.314 118.48 439.479 120.089C436.872 121.152 434.528 122.772 432.611 124.837C430.695 126.901 429.251 129.361 428.381 132.042C426.909 136.975 426.112 142.085 426.011 147.233C421.192 148.825 396.079 150.704 393.188 154.462C392.474 155.559 392.003 156.796 391.807 158.09C374.093 159.421 375.995 159.656 375.787 159.03C369.17 138.385 345.334 117.74 345.334 117.74C344.787 117.244 344.24 117.74 343.042 118.262C341.679 114.382 339.934 110.649 337.832 107.117C337.882 106.246 337.587 105.39 337.012 104.736C336.436 104.081 335.626 103.68 334.758 103.62C337.102 100.827 333.195 96.3637 327.828 100.044C326.917 98.7127 325.953 97.4338 324.963 96.0244C325.552 95.6474 326.087 95.1907 326.552 94.6672C327.099 93.6754 323.947 94.6672 342.677 91.1437C346.142 90.439 361.433 87.3331 363.517 86.6545C363.753 86.6258 363.972 86.5169 364.138 86.3459C364.304 86.175 364.407 85.9523 364.429 85.7149C368.076 83.7052 364.012 72.8476 362.449 68.9848C368.935 62.6947 367.659 55.9348 362.162 53.9773C359.629 53.2005 356.942 53.0748 354.347 53.6119C351.883 49.3474 348.534 45.6626 344.527 42.8065C341.583 41.1883 339.317 42.1801 338.639 43.72C337.962 45.2599 312.902 75.04 312.589 75.2227C307.848 76.5799 300.841 79.5553 298.522 83.914C293.156 94.1191 303.576 106.647 313.735 102.68L315.585 102.08C316.679 103.672 318.034 105.473 319.232 107.065C319.004 107.483 318.812 107.919 318.659 108.37C318.372 109.309 316.471 111.815 317.721 114.321C318.971 116.826 327.62 122.934 330.225 124.578L329.678 124.865C329.497 124.94 329.353 125.083 329.275 125.263C329.197 125.444 329.192 125.647 329.261 125.831C330.772 130.268 338.926 151.513 334.966 150.678C329.183 149.425 314.882 143.814 297.48 138.124C287.92 134.992 281.512 131.964 272.993 129.981C272.368 125.883 271.665 124.578 271.039 121.263C273.851 120.062 276.232 118.032 277.865 115.443C278.802 113.877 277.708 114.503 279.688 114.895C280.331 115.087 281.022 115.023 281.619 114.716C282.216 114.41 282.672 113.885 282.892 113.25C285.237 114.06 287.477 112.728 286.956 109.988C288.623 109.988 291.697 109.988 292.166 107.091C292.869 103.593 288.545 102.367 287.451 101.062C285.481 98.609 284.059 95.7607 283.283 92.7097C280.678 84.3577 278.646 70.2637 274.061 64.9132C272.626 63.3228 270.861 62.0657 268.891 61.2298C266.92 60.3939 264.791 59.9995 262.652 60.0741C260.513 60.1486 258.417 60.6904 256.509 61.6615C254.601 62.6327 252.928 64.0097 251.606 65.6962C249.948 64.7554 248.204 63.9775 246.396 63.3733C244.181 63.0113 241.916 63.1119 239.742 63.6688C237.567 64.2258 235.532 65.227 233.762 66.6097C225.218 73.8916 229.62 86.4196 223.863 99.8611C222.065 104.037 213.104 113.042 219.669 116.461C220.346 116.67 221.068 116.691 221.756 116.521C222.445 116.351 223.074 115.996 223.576 115.495C223.64 116.17 223.835 116.826 224.149 117.426C224.931 118.363 225.942 119.08 227.084 119.506C228.226 119.931 229.46 120.051 230.662 119.854C231.408 119.607 232.079 119.176 232.616 118.601C232.791 119.143 233.105 119.629 233.527 120.01C235.664 121.707 238.269 121.55 240.509 118.157C240.857 118.65 241.339 119.032 241.898 119.259C242.457 119.486 243.068 119.547 243.661 119.436V128.075C242.228 128.258 240.795 128.441 239.363 128.702C239.242 128.678 239.118 128.678 238.998 128.702C223.279 131.014 208.547 137.778 196.536 148.198C184.509 158.447 174.651 171.004 167.543 185.13C161.265 198.963 161.942 204.078 164.104 213.84C165.435 219.454 167.988 224.703 171.581 229.213C175.54 234.589 181.662 241.062 190.519 250.641C192.629 252.912 195.286 255.861 197.526 258.105C196.328 263.586 187.862 296.707 188.357 303.415C188.357 304.094 188.982 304.903 190.337 305.477C194.774 306.804 199.36 307.567 203.987 307.748C202.45 363.158 206.383 435.846 211.255 489.795C211.056 489.864 210.877 489.98 210.734 490.134C209.9 492.436 209.9 494.958 210.734 497.26C211.072 497.964 211.724 497.912 213.339 498.043C213.339 501.384 213.625 505.246 213.834 508.613C213.25 509.068 212.725 509.594 212.271 510.179C212.088 510.597 212.062 510.466 213.235 517.305C212.43 519.52 211.811 521.798 211.385 524.117C211.142 525.847 210.994 527.59 210.942 529.337C210.936 530.273 211.228 531.187 211.776 531.947C215.074 534.529 218.769 536.556 222.717 537.95C227.125 537.247 231.289 535.453 234.83 532.73C235.27 532.335 235.606 531.838 235.811 531.283C236.015 530.728 236.081 530.132 236.002 529.545C235.844 525.274 235.117 521.043 233.84 516.965C234.361 514.731 234.64 512.447 234.674 510.153C234.517 509.657 234.231 509.422 232.824 508.509C233.163 505.272 233.475 501.618 233.71 498.408H236.966C239.024 498.278 238.399 494.676 238.503 491.805C238.503 490.787 237.513 490.422 236.575 490.213L261.271 330.742C263.068 340.66 267.314 365.455 267.288 375.581C267.288 378.035 261.01 458.945 259.473 480.138C259.226 480.195 259 480.322 258.822 480.504C257.898 482.735 257.706 485.203 258.275 487.551C258.562 488.334 259.291 488.334 260.385 488.516C259.994 492.17 259.63 496.085 259.343 499.87C258.301 499.87 257.988 500.131 257.65 501.096C256.634 504.02 255.592 514.381 257.415 517.252C258.64 519.158 299.929 527.066 310.87 522.237C313.058 521.246 312.954 519.001 312.589 516.626C311.964 512.346 294.354 506.473 289.144 503.915C288.649 503.654 288.753 503.733 288.545 503.341C285.94 498.591 285.211 496.581 284.455 496.216C283.702 495.998 282.91 495.953 282.137 496.085C281.954 494.284 281.772 492.536 281.564 490.552C281.998 490.628 282.445 490.564 282.84 490.369C283.934 489.586 283.83 486.298 284.091 484.105C284.122 483.807 284.038 483.508 283.856 483.27C282.449 481.208 281.251 489.873 295.292 440.727C294.823 446.208 290.968 490.056 292.322 492.222C292.713 492.77 293.469 492.797 294.406 492.875C311.677 494.624 531.045 502.741 549.462 502.95C552.614 502.95 562.487 503.158 563.425 502.532C572.177 497.208 591.715 189.984 587.938 162.553ZM393.735 154.958C396.34 151.435 424.083 149.869 426.766 148.329C426.914 148.262 427.04 148.157 427.132 148.023C427.224 147.89 427.278 147.734 427.287 147.572C427.414 142.498 428.238 137.465 429.736 132.617C430.569 130.147 431.934 127.892 433.735 126.011C435.536 124.13 437.728 122.669 440.156 121.733C447.216 119.123 459.225 121.42 462.689 127.684C464.851 131.52 464.904 144.805 467.118 146.658C469.332 148.512 500.071 147.885 503.588 151.487C503.801 151.915 503.95 152.372 504.031 152.844C504.832 158.537 504.771 164.318 503.848 169.992C496.737 172.837 409.495 176.752 395.845 175.212C393.917 175.003 393.761 175.212 393.24 173.28C391.964 169.235 391.443 158.038 393.735 154.958ZM326.578 106.856C326.76 105.342 326.083 106.047 327.542 106.36C327.335 106.726 327.219 107.137 327.205 107.558C327.191 107.978 327.278 108.396 327.46 108.775C327.641 109.155 327.912 109.485 328.248 109.737C328.585 109.989 328.977 110.155 329.391 110.223C329.146 110.568 328.997 110.973 328.961 111.395C328.924 111.817 329.001 112.242 329.183 112.624C329.808 113.929 330.694 114.112 332.023 114.268C331.506 114.857 330.778 115.217 329.997 115.27C329.217 115.324 328.447 115.067 327.855 114.555C327.62 114.321 326.474 112.911 324.963 111.032C325.73 109.74 326.276 108.328 326.578 106.856ZM335.878 105.864C336.06 105.966 336.219 106.105 336.346 106.271C336.473 106.437 336.565 106.627 336.616 106.829C336.667 107.032 336.677 107.243 336.644 107.45C336.611 107.656 336.537 107.854 336.425 108.03C335.3 107.912 334.162 107.991 333.065 108.265C331.892 108.526 329.834 108.709 329.339 107.926C328.61 106.673 333.95 104.533 335.878 105.864ZM330.381 100.827C333.221 99.6523 334.836 101.636 334.341 102.706C332.519 103.887 330.39 104.505 328.219 104.481C328.101 104.479 327.984 104.452 327.877 104.403C327.769 104.353 327.673 104.282 327.594 104.194C327.021 103.646 327.412 103.071 327.907 102.549C328.621 101.83 329.459 101.246 330.381 100.827ZM325.823 92.8141C322.618 88.1422 314.83 77.7544 313.579 75.7447L338.405 47.0347C339.29 54.8647 347.835 69.2197 352.081 75.7447C352.22 75.9211 352.412 76.049 352.628 76.1101C354.995 79.6598 357.915 82.8057 361.277 85.4278C359.245 85.6888 333.169 91.3525 325.823 92.8141ZM361.511 55.8043C362.169 56.0337 362.773 56.3968 363.284 56.8711C363.795 57.3453 364.203 57.9203 364.482 58.56C364.761 59.1997 364.905 59.8903 364.905 60.5884C364.904 61.2864 364.76 61.9769 364.481 62.6164C363.074 66.5053 359.271 69.4285 355.832 71.8819C354.894 72.5866 353.983 73.2391 353.227 73.735C349.714 68.7272 346.53 63.4962 343.693 58.075C349.007 56.4829 356.666 53.8207 361.511 55.8043ZM313.162 100.905C304.696 104.22 295.969 93.4405 300.137 84.7492C301.987 80.8342 308.708 77.5978 312.798 76.1362C313.866 78.0937 322.879 91.6396 324.416 94.0669C320.911 96.7304 317.14 99.022 313.162 100.905ZM317.044 101.192C319.31 99.9133 321.993 98.1907 324.103 96.703C324.963 98.0863 325.849 99.6001 326.708 100.983C326.252 101.338 325.889 101.799 325.653 102.327C325.417 102.856 325.314 103.434 325.354 104.011C324.642 103.636 323.833 103.49 323.035 103.593C321.983 103.806 321.052 104.413 320.43 105.29L317.044 101.192ZM326.005 119.671C320.3 114.686 319.779 115.077 319.232 113.564C318.685 112.05 320.248 109.831 320.587 108.892C321.16 107.221 322.983 104.69 324.494 105.76C325.51 106.464 324.077 110.536 323.713 111.371C323.571 111.591 323.457 111.828 323.374 112.076C324.338 113.426 325.373 114.724 326.474 115.965C327.084 116.503 327.811 116.89 328.598 117.096C329.384 117.302 330.208 117.321 331.002 117.151C331.797 116.981 332.542 116.627 333.175 116.117C333.809 115.608 334.316 114.957 334.654 114.216L335.904 113.955C336.007 113.93 336.098 113.87 336.16 113.783C336.223 113.697 336.252 113.591 336.243 113.485C336.243 112.807 334.732 113.485 332.7 112.755C331.814 112.494 331.241 112.415 331.033 111.867C330.564 110.745 334.68 109.831 335.956 109.857C336.298 109.817 336.644 109.844 336.975 109.938C337.305 110.032 337.614 110.191 337.884 110.406C338.144 110.64 341.869 117.557 342.364 118.705L331.215 123.925C329.73 122.96 327.776 121.289 326.005 119.671ZM334.68 151.931C334.943 152.014 335.22 152.044 335.495 152.018C335.771 151.992 336.038 151.911 336.281 151.78C336.524 151.648 336.738 151.469 336.91 151.253C337.083 151.037 337.21 150.788 337.285 150.521C338.587 146.606 333.507 133.243 331.033 125.909L344.657 119.488C347.809 122.333 368.102 140.995 373.911 159.63C377.245 170.07 375.969 180.51 364.116 188.053C355.008 193.545 344.42 196.062 333.82 195.257C323.209 194.584 312.805 192.002 303.107 187.635C303.498 182.024 303.368 169.522 304.331 162.762C304.34 162.654 304.31 162.547 304.246 162.46C304.181 162.374 304.088 162.313 303.982 162.291C303.876 162.268 303.766 162.285 303.672 162.339C303.578 162.392 303.507 162.477 303.472 162.579C302.723 164.852 302.166 167.183 301.805 169.548C301.102 175.71 301.015 181.926 301.544 188.105C301.336 188.523 301.023 186.33 304.904 223.21C304.904 223.653 319.44 287.285 319.05 295.872C313.84 298.691 283.908 301.823 277.37 301.953C275.312 296.916 264.006 262.803 262.235 257.375C272.655 205.618 264.084 239.888 279.167 208.437C284.449 197.376 289.162 186.051 293.286 174.507C294.286 171.847 295.087 169.117 295.683 166.338C295.891 165.868 296.178 165.372 295.683 164.824L289.014 155.82C296.1 137.889 295.865 138.855 295.839 138.411C312.641 144.179 328.792 150.6 334.68 151.931ZM303.732 190.324C309.38 192.724 315.253 194.551 321.264 195.779C319.05 210.838 316.497 231.196 313.814 254.243C304.957 212.065 308.161 234.537 303.732 190.324ZM223.524 463.356C222.743 483.479 223.524 482.592 222.665 482.618C222.552 482.618 222.443 482.575 222.36 482.497C222.278 482.419 222.228 482.313 222.222 482.2C221.206 459.389 223.941 416.115 229.386 308.583H230.375C228.63 348.907 223.707 458.423 223.524 463.356ZM240.952 157.725C234.511 150.429 228.583 142.693 223.212 134.574C228.174 132.706 233.316 131.359 238.555 130.555C240.274 134.522 245.484 149.112 246.943 153.236L241.004 157.803L240.952 157.725ZM244.052 130.137C249.053 135.357 259.473 144.936 266.741 145.614C265.986 146.841 261.219 154.593 260.281 155.715C257.493 154.802 245.927 140.916 243.895 138.515C243.088 136.349 241.733 132.643 240.848 130.529L244.052 130.137ZM234.674 170.644V170.383C234.674 170.279 240.04 160.883 240.561 159.943C240.795 159.5 239.988 160.23 247.334 154.201C259.682 189.28 259.265 192.777 265.569 216.267C230.87 165.137 234.83 170.383 234.674 170.644ZM262.73 154.097C263.239 155.96 263.928 157.77 264.787 159.5C265.308 160.074 263.798 165.633 261.323 190.611C256.855 174.434 251.578 158.493 245.51 142.848C247.594 145.119 256.868 155.324 259.708 156.42C259.885 156.534 260.092 156.59 260.302 156.58C260.512 156.571 260.714 156.497 260.88 156.368C261.167 156.054 261.844 155.141 262.677 153.966L262.73 154.097ZM269.32 221.592C272.785 205.932 280.235 168.452 281.043 152.557L287.295 156.681C294.745 167.121 294.068 165.92 294.016 166.39C293.052 171.949 275.937 212.691 269.268 221.461L269.32 221.592ZM286.93 154.984L281.173 151.435C281.842 145.978 282.224 140.489 282.319 134.992C285.94 136.218 289.691 137.602 293.208 139.142C292.583 140.629 288.102 151.983 286.93 154.984ZM276.718 169.94C275.939 166.221 274.912 162.559 273.644 158.978C273.775 158.403 274.322 155.872 274.66 154.28C275.262 154.955 275.896 155.599 276.562 156.211C277.213 156.785 277.734 157.125 278.438 156.785C277.891 161.17 277.344 165.346 276.718 169.94ZM280.105 134.235C280.078 140.344 279.677 146.445 278.907 152.505C278.438 153.444 278.047 154.201 277.76 154.697C274.712 151.778 271.824 148.693 269.112 145.458C273.723 144.179 273.775 137.001 273.306 132.199C275.676 132.773 277.943 133.4 280.105 134.13V134.235ZM248.272 115.965C248.428 115.521 248.272 115.652 248.663 115.73C250.247 115.898 251.842 115.535 253.199 114.7C254.556 113.864 255.599 112.602 256.165 111.11C256.752 108.541 256.58 105.857 255.67 103.385C255.28 102.216 254.975 101.021 254.758 99.8089C253.456 94.5889 250.278 89.4994 251.736 84.3838C252.088 82.9921 252.969 81.7931 254.19 81.0423C255.412 80.2915 256.877 80.0483 258.275 80.3644C258.985 80.6212 259.674 80.9354 260.333 81.304C262.547 82.4524 264.136 83.2876 265.178 82.2436C265.178 82.2436 268.33 79.1377 271.326 79.9468C272.524 80.4166 275.338 86.3935 275.963 89.656C275.493 89.028 274.805 88.5995 274.035 88.4554C271.899 88.1944 270.414 89.9431 270.727 90.4651C272.47 90.8563 274.292 90.6921 275.937 89.9953C276.83 94.911 277.24 99.9026 277.161 104.898C275.953 104.112 274.624 103.53 273.228 103.176C272.171 103.14 271.12 103.345 270.154 103.776C269.116 103.514 268.045 103.409 266.976 103.463C263.98 104.037 261.505 107.3 259.994 108.683C259.317 109.309 258.822 111.032 259.994 111.763C261.167 112.494 262.86 111.162 263.381 110.562C265.529 108.401 267.866 106.435 270.362 104.69C272.517 106.116 274.743 107.431 277.031 108.631C276.734 109.904 276.638 111.216 276.744 112.52C276.135 114.054 275.207 115.442 274.021 116.589C272.835 117.737 271.419 118.618 269.867 119.175C269.663 119.24 269.473 119.345 269.311 119.485C269.148 119.625 269.015 119.796 268.92 119.989C268.825 120.181 268.77 120.391 268.758 120.606C268.746 120.82 268.778 121.035 268.851 121.237C269.372 124.5 271.873 131.312 271.118 138.176C270.883 140.316 270.206 143.004 268.07 143.239C261.818 143.944 250.199 133.165 245.797 128.623V118.731C246.967 118.101 247.852 117.045 248.272 115.782V115.965ZM245.25 93.7276C245.687 96.494 245.974 99.2821 246.11 102.08C244.625 102.602 242.645 100.644 242.28 99.2608C241.447 96.3898 242.176 94.5628 245.25 93.7276ZM190.545 303.05C190.232 296.812 197.943 266.17 199.428 259.802C200.152 260.582 201.043 261.188 202.033 261.577C202.258 261.602 202.486 261.558 202.686 261.451C202.886 261.344 203.049 261.178 203.153 260.976C203.336 260.715 203.961 259.724 204.872 258.366C205.629 259.967 206.691 261.403 207.998 262.595C204.117 265.779 203.283 265.544 203.622 266.17C203.672 266.266 203.757 266.338 203.859 266.372C203.961 266.406 204.072 266.399 204.169 266.353C215.266 261.446 220.945 252.546 221.597 240.096C221.605 239.994 221.575 239.891 221.512 239.809C221.45 239.728 221.359 239.672 221.258 239.653C220.372 239.653 220.997 241.793 218.106 249.049C216.803 247.749 215.202 246.79 213.443 246.256C213.791 245.8 214.174 245.372 214.589 244.977C215.188 244.821 215.527 244.22 215.188 243.359C214.329 241.088 208.988 231.823 207.634 229.5C207.648 229.352 207.648 229.204 207.634 229.056C207.79 225.428 208.65 219.008 209.457 212.091C211.015 198.507 211.737 184.839 211.619 171.166C211.429 167.195 210.692 163.269 209.431 159.5C209.407 159.389 209.34 159.292 209.245 159.231C209.149 159.17 209.034 159.149 208.923 159.173C208.813 159.198 208.716 159.265 208.655 159.36C208.594 159.456 208.573 159.572 208.598 159.682C209.405 165.424 209.822 188.184 209.822 188.706C207.399 192.386 195.911 207.993 195.963 210.421C196.236 211.881 196.692 213.302 197.318 214.649C197.318 215.328 195.729 211.099 206.279 230.727C207.66 233.337 211.906 241.167 213.026 243.62C208.971 248.608 205.222 253.837 201.799 259.28C195.937 254.582 178.354 234.746 173.352 227.96C169.934 223.693 167.505 218.719 166.24 213.396C164.858 208.906 164.449 204.172 165.042 199.511C167.647 182.676 184.632 161.066 197.865 149.921C205.159 143.651 213.431 138.625 222.352 135.044C223.837 137.654 226.937 142.143 230.167 146.789C239.675 160.074 239.727 158.064 239.154 159.056C237.748 161.666 233.475 168.504 232.798 170.044C232.433 170.905 229.412 167.043 266.142 221.905C264.97 228.273 252.101 299.709 249.418 305.686C244.885 307.487 195.052 306.886 190.545 303.05ZM208.546 262.125C207.485 260.61 206.692 258.924 206.201 257.14C207.599 254.466 209.248 251.932 211.124 249.571C212.245 248.083 212.193 247.926 212.948 247.979C214.643 248.218 216.258 248.853 217.663 249.832C215.683 254.656 212.52 258.902 208.467 262.177L208.546 262.125ZM205.68 226.107C204.091 223.497 198.256 212.457 198.099 210.447C199.194 207.524 205.003 198.702 210.109 190.245C209.509 199.276 206.696 214.675 205.602 226.159L205.68 226.107ZM233.71 529.545C233.709 529.933 233.657 530.32 233.554 530.694C233.507 530.79 233.435 530.871 233.345 530.929C230.666 532.985 227.639 534.541 224.41 535.522C222.639 536.07 222.613 536.123 218.731 534.322C216.618 533.396 214.573 532.323 212.609 531.111C211.984 530.537 211.906 528.658 211.906 527.823C213.705 529.467 215.69 530.895 217.819 532.077C221.518 534.087 224.045 534.452 229.698 531.816C231.103 531.185 232.446 530.425 233.71 529.545ZM231.417 498.617C231.183 501.514 230.922 504.489 230.662 507.152C228.466 505.798 226.176 504.604 223.811 503.576C221.571 503.002 217.559 505.768 215.683 507.152C215.475 505.116 215.266 502.558 214.876 498.121C217.819 498.278 221.31 498.356 224.254 498.382C232.225 498.46 231.47 498.225 231.417 498.617ZM236.132 496.007C235.872 496.007 212.922 496.398 211.984 496.32C211.235 494.485 211.045 492.469 211.437 490.526C211.795 490.429 212.161 490.368 212.531 490.343C220.462 490.391 228.382 490.966 236.237 492.066C236.302 493.441 236.268 494.819 236.132 496.19V496.007ZM279.115 490.317C279.297 492.301 279.454 494.363 279.636 496.372C278.747 496.523 277.875 496.759 277.031 497.077C275.025 498.147 276.744 501.853 276.093 502.689C273.644 502.401 265.335 500.079 260.932 499.791C261.088 496.268 261.297 491.961 261.479 488.647C266.637 489.378 274.165 489.978 279.115 490.317ZM310.375 517.592C310.375 518.636 310.583 519.758 309.802 520.202C300.71 524.247 262.026 517.983 258.249 516.443C257.889 515.617 257.677 514.733 257.624 513.833C272.003 516.261 298.783 523.099 310.375 517.592ZM281.251 488.36C280.991 488.36 260.046 487.029 259.317 486.898C259.029 485.561 258.906 484.193 258.952 482.826C258.924 482.225 259.04 481.625 259.291 481.078C262.443 480.53 278.49 483.688 281.668 484.445C281.602 485.756 281.463 487.063 281.251 488.36ZM294.12 376.13C292.479 383.96 276.249 463.956 273.592 476.145C273.557 476.247 273.486 476.333 273.392 476.386C273.298 476.439 273.188 476.456 273.082 476.433C272.977 476.411 272.883 476.351 272.819 476.264C272.754 476.177 272.724 476.07 272.733 475.962C274.869 464.922 290.212 384.09 291.984 375.66C292.817 371.719 285.81 310.279 284.976 303.702H286.357C290.16 328.341 294.927 372.136 294.12 376.13ZM561.601 500.966C550.582 501.827 296.126 491.126 293.833 490.839C293.286 483.975 297.35 437.517 297.949 430.653C302.117 415.854 310.062 386.805 312.407 371.536C314.439 358.199 310.87 328.341 309.099 314.873C309.62 310.018 310.114 305.19 310.635 300.387C313.639 299.939 316.596 299.214 319.466 298.221C320.248 297.856 321.029 297.36 321.108 296.525C321.603 291.879 315.898 264.891 315.038 260.22C317.903 234.798 320.795 212.378 323.009 196.04C337.519 198.65 352.654 197.736 365.21 189.75C377.297 182.076 379.251 171.48 376.36 160.883C381.179 160.413 386.259 159.969 391.521 159.552C390.948 163.754 391.052 173.907 393.266 175.656C397.46 178.996 496.398 175.055 504.578 171.793C504.98 171.653 505.322 171.376 505.542 171.01C506.792 168.609 506.688 158.56 506.323 154.802C514.425 154.802 581.868 154.28 586.687 160.779C592.132 168.139 570.12 500.131 561.601 500.835V500.966Z" fill="#333399"/>
<path d="M380.215 309.209C379.929 307.408 379.329 307.069 378.34 306.782C373.13 305.268 342.885 303.546 340.333 305.268C337.78 306.991 332.752 327.009 334.523 333.221C334.691 333.58 334.934 333.898 335.235 334.155C335.536 334.412 335.889 334.601 336.269 334.709C342.443 337.319 372.27 339.746 375.5 337.919C378.73 336.092 380.971 314.142 380.215 309.209ZM375.5 334.135C375.283 334.854 374.968 335.539 374.562 336.171C372.478 337.345 340.02 335.596 336.165 332.699C334.419 326.879 338.77 307.382 340.828 305.947C342.885 304.511 374.901 307.252 378.235 308.739C379.303 313.098 377.089 329.15 375.5 334.135ZM369.118 356.711C366.513 354.702 332.648 353.083 330.043 354.754C327.438 356.424 322.462 376.338 324.234 382.707C324.405 383.063 324.649 383.379 324.95 383.635C325.25 383.891 325.601 384.082 325.979 384.195C332.205 386.805 357.942 388.762 363.96 387.77C364.353 387.755 364.738 387.651 365.085 387.466C365.433 387.281 365.734 387.019 365.966 386.7C368.545 383.124 371.853 358.93 369.118 356.711ZM364.273 385.63C362.136 386.831 329.86 385.082 325.875 382.159C324.129 376.338 328.48 356.842 330.538 355.406C332.596 353.971 364.898 356.816 367.92 358.199C369.222 363.08 365.992 384.664 364.273 385.63ZM363.074 404.996C360.469 403.013 326.604 401.368 323.999 403.039C321.394 404.709 316.419 424.597 318.19 430.94C318.358 431.298 318.6 431.617 318.901 431.873C319.203 432.13 319.555 432.319 319.935 432.427C326.161 435.037 351.899 436.995 357.916 436.003C358.312 435.985 358.698 435.877 359.046 435.687C359.393 435.497 359.693 435.23 359.922 434.907C362.475 431.462 365.836 407.241 363.074 404.996ZM359.141 431.905C359.141 432.219 358.489 433.785 358.203 433.915C356.067 435.116 323.791 433.341 319.805 430.444C318.086 424.65 322.41 405.153 324.468 403.691C326.526 402.23 358.515 404.996 361.876 406.484C362.918 410.712 360.912 426.398 359.141 431.905Z" fill="#333399"/>
<path d="M367.164 313.96C362.501 318.397 358.359 323.538 355.337 325.47C354.269 326.175 353.722 326.409 352.732 325.887C351.119 324.867 349.75 323.504 348.72 321.894C348.661 321.819 348.577 321.767 348.484 321.747C348.391 321.726 348.293 321.738 348.208 321.781C348.122 321.824 348.054 321.895 348.015 321.982C347.975 322.069 347.967 322.167 347.991 322.26C348.865 324.349 350.299 326.155 352.133 327.48C352.799 327.825 353.551 327.967 354.296 327.888C355.042 327.809 355.748 327.513 356.327 327.036C358.453 325.559 360.371 323.803 362.032 321.816C364.059 319.485 365.947 317.036 367.685 314.482C367.741 314.455 367.79 314.415 367.828 314.365C367.866 314.315 367.891 314.256 367.901 314.195C367.912 314.133 367.908 314.07 367.889 314.01C367.87 313.95 367.837 313.896 367.793 313.852C367.748 313.807 367.694 313.774 367.635 313.755C367.575 313.736 367.512 313.732 367.45 313.743C367.389 313.753 367.33 313.778 367.281 313.816C367.231 313.854 367.191 313.903 367.164 313.96ZM356.926 363.419C351.299 368.77 345.959 375.556 343.484 375.66C342.714 375.512 342.001 375.15 341.426 374.616C338.665 372.345 338.665 370.806 337.988 371.197C337.938 371.219 337.894 371.251 337.857 371.292C337.821 371.332 337.793 371.379 337.776 371.431C337.759 371.482 337.753 371.537 337.758 371.591C337.763 371.645 337.779 371.698 337.805 371.745C338.769 373.99 341.062 377.461 343.51 377.513C346.636 377.513 351.742 371.719 353.592 369.396C355.441 367.073 356.796 364.933 357.525 363.941C357.594 363.862 357.629 363.758 357.622 363.653C357.614 363.547 357.566 363.449 357.486 363.38C357.407 363.311 357.303 363.276 357.198 363.283C357.093 363.291 356.995 363.34 356.926 363.419ZM350.856 411.704C345.334 416.924 339.863 423.841 337.441 423.919C336.656 423.793 335.928 423.429 335.357 422.875C332.569 420.604 332.752 419.091 331.918 419.456C331.87 419.483 331.828 419.52 331.793 419.563C331.759 419.607 331.734 419.657 331.72 419.71C331.705 419.764 331.702 419.82 331.709 419.874C331.716 419.929 331.734 419.982 331.762 420.03C332.7 422.275 334.992 425.746 337.467 425.798C340.593 425.798 345.699 420.004 347.522 417.681C349.346 415.358 350.752 413.218 351.456 412.226C351.82 411.835 351.221 411.313 350.856 411.704ZM551.207 323.069C542.793 322.573 405.9 316.805 397.225 316.439C397.136 316.462 397.056 316.515 397 316.588C396.943 316.661 396.912 316.751 396.912 316.844C396.912 316.937 396.943 317.027 397 317.1C397.056 317.173 397.136 317.225 397.225 317.248C406.056 317.823 545.476 323.721 551.233 323.878C551.322 323.852 551.4 323.797 551.455 323.722C551.509 323.647 551.537 323.556 551.534 323.463C551.531 323.37 551.497 323.281 551.438 323.21C551.379 323.138 551.297 323.089 551.207 323.069ZM540.969 372.554C532.555 372.058 395.662 366.29 386.988 365.899C386.926 365.883 386.862 365.881 386.8 365.894C386.737 365.907 386.679 365.934 386.629 365.973C386.579 366.012 386.538 366.062 386.51 366.12C386.482 366.177 386.468 366.24 386.468 366.303C386.468 366.367 386.482 366.43 386.51 366.487C386.538 366.544 386.579 366.594 386.629 366.633C386.679 366.672 386.737 366.699 386.8 366.712C386.862 366.725 386.926 366.724 386.988 366.708C395.819 367.282 535.212 373.181 540.969 373.363C541.059 373.34 541.138 373.288 541.195 373.215C541.252 373.142 541.283 373.052 541.283 372.959C541.283 372.866 541.252 372.776 541.195 372.703C541.138 372.63 541.059 372.577 540.969 372.554ZM534.9 420.839C526.486 420.343 389.593 414.575 380.918 414.184C380.828 414.207 380.749 414.259 380.692 414.332C380.636 414.406 380.605 414.496 380.605 414.588C380.605 414.681 380.636 414.771 380.692 414.844C380.749 414.918 380.828 414.97 380.918 414.993C389.723 415.567 529.143 421.466 534.9 421.622C535.003 421.622 535.103 421.581 535.176 421.508C535.249 421.434 535.29 421.335 535.29 421.231C535.29 421.127 535.249 421.027 535.176 420.954C535.103 420.881 535.003 420.839 534.9 420.839ZM550.035 341.547C541.621 341.078 404.728 335.283 396.079 334.918C396.018 334.902 395.953 334.901 395.891 334.914C395.829 334.927 395.77 334.954 395.72 334.993C395.67 335.032 395.629 335.082 395.602 335.139C395.574 335.196 395.559 335.259 395.559 335.323C395.559 335.386 395.574 335.449 395.602 335.506C395.629 335.563 395.67 335.613 395.72 335.653C395.77 335.692 395.829 335.719 395.891 335.732C395.953 335.744 396.018 335.743 396.079 335.727C404.884 336.301 544.304 342.2 550.061 342.357C550.15 342.331 550.228 342.276 550.282 342.201C550.337 342.126 550.365 342.035 550.362 341.942C550.359 341.849 550.325 341.76 550.266 341.688C550.207 341.617 550.125 341.567 550.035 341.547ZM539.849 391.033C531.435 390.537 394.542 384.769 385.868 384.404C385.347 384.404 385.295 385.161 385.868 385.213C394.699 385.787 534.118 391.659 539.875 391.842C539.964 391.816 540.042 391.762 540.097 391.687C540.151 391.611 540.179 391.52 540.176 391.427C540.173 391.335 540.139 391.245 540.08 391.174C540.021 391.103 539.94 391.053 539.849 391.033ZM533.78 439.318C525.391 438.822 388.499 433.054 379.824 432.663C379.714 432.663 379.607 432.707 379.529 432.785C379.451 432.863 379.407 432.969 379.407 433.08C379.407 433.191 379.451 433.297 379.529 433.375C379.607 433.454 379.714 433.498 379.824 433.498C388.655 434.046 528.049 439.944 533.806 440.127C533.895 440.101 533.973 440.047 534.027 439.972C534.082 439.896 534.11 439.805 534.107 439.712C534.104 439.62 534.07 439.53 534.011 439.459C533.951 439.388 533.87 439.338 533.78 439.318ZM403.113 284.623C403.92 284.154 404.285 282.666 404.519 281.674C407.958 267.711 411.918 203.766 411.084 200.164C411.013 199.923 410.878 199.707 410.693 199.537C409.208 198.18 401.003 198.024 398.163 197.945C383.289 197.58 348.668 198.702 348.277 199.068C347.314 200.242 332.96 276.846 334.731 282.039C336.503 287.233 396.965 288.095 403.113 284.623ZM336.425 281.335C336.406 281.057 336.406 280.778 336.425 280.5C336.447 280.583 336.496 280.657 336.564 280.71C336.632 280.762 336.716 280.791 336.802 280.791C336.889 280.791 336.972 280.762 337.041 280.71C337.109 280.657 337.158 280.583 337.18 280.5C338.29 276.215 340.479 272.288 343.536 269.094C347.035 265.176 351.541 262.296 356.561 260.768C358.833 263.719 361.305 266.51 363.96 269.12C364.559 269.564 365.262 269.12 365.991 268.781C368.596 275.384 367.346 266.849 365.991 284.441C362.11 284.31 339.785 283.449 336.425 281.335ZM365.835 250.85C364.382 250.272 363.077 249.374 362.017 248.221C360.957 247.069 360.17 245.693 359.713 244.194C359.436 243.055 359.262 241.894 359.192 240.723C360.096 241.92 361.357 242.798 362.792 243.23C364.226 243.662 365.761 243.625 367.174 243.126C368.586 242.626 369.804 241.689 370.649 240.45C371.495 239.211 371.926 237.734 371.879 236.234H372.348C371.644 238.612 371.336 241.09 371.436 243.568C371.447 243.934 371.545 244.292 371.722 244.612C372.504 245.604 373.285 245.578 374.614 245.369C374.718 245.364 374.818 245.321 374.894 245.25C374.97 245.178 375.019 245.082 375.031 244.977C375.031 244.377 373.989 244.638 373.259 243.907C373.259 243.02 373.546 240.018 373.572 239.262C373.572 235.973 372.921 236.338 373.859 236.338C373.678 237.614 373.856 238.914 374.371 240.094C374.886 241.274 375.719 242.287 376.776 243.02C378.042 243.844 379.528 244.261 381.037 244.214C382.546 244.168 384.004 243.66 385.216 242.759C385.216 243.098 384.956 243.49 384.747 244.012C384.037 246.361 382.629 248.437 380.71 249.963C377.662 252.103 375.708 251.346 375.917 252.781C376.229 254.843 376.932 256.305 377.375 259.359C375.089 260.738 372.888 262.254 370.785 263.9C368.773 262.033 366.651 260.289 364.428 258.68C365.47 253.225 367.294 251.502 365.835 250.85ZM374.249 234.642C374.168 234.864 374.098 235.091 374.041 235.32C373.706 235.095 373.311 234.974 372.908 234.974C372.504 234.974 372.11 235.095 371.775 235.32C371.722 234.559 371.503 233.819 371.134 233.152C370.765 232.484 370.255 231.906 369.638 231.458C368.005 230.412 366.106 229.86 364.168 229.866C362.789 229.803 361.438 230.269 360.391 231.171C361.126 227.793 363.108 224.819 365.939 222.845C370.837 219.791 378.443 220.391 381.569 225.246C382.273 226.226 382.802 227.321 383.132 228.482C383.304 229.371 383.548 230.244 383.862 231.092C383.298 230.856 382.7 230.715 382.09 230.675C378.704 230.44 375.083 231.249 374.249 234.694V234.642ZM367.685 241.141C367.048 241.466 366.353 241.66 365.641 241.712C364.929 241.764 364.213 241.673 363.536 241.445C362.859 241.216 362.234 240.855 361.699 240.381C361.163 239.908 360.727 239.332 360.417 238.687C359.531 235.347 360.912 231.588 364.194 231.562C374.119 231.223 371.149 239.862 367.685 241.141ZM382.116 232.345C385.399 232.71 386.337 236.625 385.138 239.862C384.757 240.464 384.26 240.984 383.678 241.393C383.095 241.802 382.437 242.091 381.742 242.244C381.047 242.396 380.328 242.41 379.628 242.283C378.928 242.157 378.26 241.893 377.662 241.506C374.301 239.888 372.061 230.936 382.064 232.345H382.116ZM387.326 234.955L387.978 234.59C389.463 235.712 389.723 237.617 387.196 239.81C387.626 238.305 387.671 236.716 387.326 235.19V234.955ZM356.509 233.702C356.718 233.498 356.999 233.384 357.291 233.384C357.583 233.384 357.863 233.498 358.072 233.702C358.197 233.813 358.35 233.886 358.515 233.911C358.071 235.338 357.982 236.852 358.255 238.322C356.405 237.2 354.92 235.399 356.509 233.807V233.702ZM376.047 267.632C374.802 266.784 373.61 265.86 372.478 264.866L380.085 258.68C380.684 259.124 382.325 260.35 383.211 261.107C378.886 264.996 377.063 266.849 376.047 267.711V267.632ZM368.961 264.657C367.605 265.545 366.205 266.364 364.767 267.11C364.038 266.353 357.864 259.541 357.864 259.541C358.88 258.863 360.808 257.766 361.485 257.401L368.961 264.657ZM375.5 284.78C375.489 280.6 374.973 276.438 373.963 272.382C375.682 269.016 374.744 269.772 375.734 270.007C375.865 270.066 376.007 270.097 376.151 270.097C376.295 270.097 376.437 270.066 376.568 270.007C379.158 267.809 381.578 265.419 383.81 262.856C392.693 266.797 399.7 273.296 402.045 282.901C401.341 284.78 377.818 284.78 375.5 284.78ZM348.877 199.72C355.415 199.537 403.347 198.285 409.443 200.738C410.042 205.958 405.431 270.555 402.592 281.1C400.169 271.965 393.5 265.44 384.904 261.394C385.295 260.533 384.357 260.011 380.293 257.766C380.231 257.727 380.158 257.706 380.085 257.706C380.011 257.706 379.939 257.727 379.876 257.766L378.86 258.393C378.469 255.783 378.079 255.026 377.74 253.173C379.316 252.781 380.795 252.067 382.082 251.074C383.368 250.081 384.436 248.832 385.216 247.405C386.174 245.708 386.901 243.891 387.379 242.002C390.635 239.757 392.432 236.625 389.984 233.598C390.687 232.502 391.182 231.614 390.661 230.44C390.882 230.105 391.022 229.723 391.072 229.325C391.122 228.927 391.079 228.522 390.947 228.143C390.823 227.624 390.63 227.124 390.374 226.655C390.639 226.223 390.813 225.74 390.884 225.238C390.955 224.735 390.923 224.223 390.788 223.734C390.654 223.244 390.421 222.788 390.103 222.392C389.785 221.997 389.39 221.671 388.942 221.435C389.047 220.799 388.993 220.147 388.784 219.537C388.576 218.927 388.219 218.378 387.746 217.941C387.273 217.504 386.699 217.191 386.076 217.031C385.452 216.871 384.799 216.869 384.174 217.024C383.951 216.431 383.562 215.915 383.054 215.537C382.635 215.183 382.149 214.915 381.626 214.749C381.103 214.584 380.553 214.523 380.006 214.571C378.027 214.728 378.86 215.354 378.443 214.336C378.228 213.846 377.853 213.445 377.379 213.198C376.905 212.952 376.362 212.874 375.838 212.979C375.003 213.039 374.205 213.348 373.546 213.866C372.766 213.219 371.785 212.865 370.772 212.865C369.759 212.865 368.778 213.219 367.997 213.866C367.607 214.284 367.815 214.179 367.476 214.049C366.622 213.828 365.726 213.828 364.871 214.049C364.359 214.161 363.881 214.392 363.474 214.723C363.066 215.054 362.742 215.475 362.527 215.954C362.105 215.877 361.672 215.877 361.25 215.954C360.402 216.261 359.64 216.767 359.028 217.43C358.416 218.093 357.972 218.894 357.734 219.765C357.72 219.965 357.72 220.165 357.734 220.365C357.245 220.648 356.775 220.962 356.327 221.305C355.837 221.895 355.515 222.606 355.396 223.364C355.277 224.123 355.364 224.899 355.65 225.611C355.046 226.04 354.598 226.654 354.373 227.36C354.237 228.252 354.383 229.165 354.79 229.97C354.943 230.188 355.109 230.397 355.285 230.596L355.024 230.91C354.855 231.364 354.855 231.865 355.024 232.319C354.589 232.829 354.285 233.439 354.14 234.094C353.994 234.749 354.012 235.43 354.191 236.077C354.783 237.685 355.857 239.071 357.265 240.045C357.265 240.645 357.265 241.663 357.499 242.655C357.75 244.712 358.523 246.671 359.745 248.344C360.968 250.017 362.598 251.347 364.481 252.207C363.874 253.916 363.369 255.659 362.97 257.427C361.85 256.592 361.693 256.383 361.407 256.54C357.265 258.184 356.197 258.68 356.197 259.15C345.438 262.621 337.962 272.435 336.503 280.03C336.581 268.52 347.678 203.661 348.877 199.72ZM563.737 243.385C563.372 242.994 434.008 242.185 433.748 242.211C433.637 242.211 433.531 242.255 433.453 242.333C433.375 242.411 433.331 242.518 433.331 242.628C433.331 242.367 432.341 254.4 433.669 255.183C437.186 257.166 551.65 259.071 562.044 258.054C562.496 258.059 562.936 257.912 563.294 257.636C565.196 255.678 565.144 244.586 563.737 243.385ZM433.826 243.02H433.982C433.982 243.02 433.852 243.15 433.826 243.02ZM561.992 256.07C556.052 256.827 440.521 255.809 434.347 254.373C433.981 250.598 433.981 246.796 434.347 243.02L562.643 245.186C563.132 248.822 562.91 252.519 561.992 256.07ZM564.05 221.487C563.685 221.096 434.321 220.287 434.06 220.313C433.952 220.319 433.849 220.365 433.772 220.442C433.695 220.519 433.65 220.622 433.643 220.731C433.643 220.47 432.627 232.502 433.982 233.285C437.707 235.425 552.509 237.121 562.356 236.156C562.808 236.162 563.249 236.014 563.607 235.738C565.508 233.781 565.43 222.688 564.05 221.487ZM434.138 221.122H434.295C434.451 221.122 434.164 221.279 434.138 221.122ZM562.304 234.172C556.704 234.929 440.885 233.911 434.659 232.449C434.307 228.682 434.307 224.89 434.659 221.122L562.956 223.288C563.431 226.916 563.21 230.601 562.304 234.146V234.172ZM564.336 200.451C564.13 200.285 563.871 200.201 563.607 200.216C563.607 200.216 435.597 199.224 434.816 199.25C434.425 199.25 433.878 199.25 433.904 199.694C433.904 199.433 432.914 211.465 434.242 212.248C437.473 214.075 561.887 216.711 563.867 214.701C565.847 212.692 565.665 201.651 564.336 200.451ZM434.399 200.085H434.555C434.711 200.085 434.425 200.216 434.399 200.085ZM562.565 213.135C556.599 213.892 440.521 212.822 434.92 211.413C434.515 207.65 434.463 203.858 434.763 200.085L563.06 202.252C563.595 205.869 563.427 209.556 562.565 213.109V213.135ZM456.072 280.369C457.609 279.508 457.766 278.151 457.036 277.289C454.972 275.962 452.658 275.074 450.237 274.679C450.007 272.351 449.182 270.122 447.841 268.206C445.236 265.857 443.542 271.234 442.631 274.601C440.442 274.784 435.623 275.41 435.258 277.576C435.258 278.333 435.779 278.803 436.457 279.142C437.993 279.76 439.568 280.274 441.172 280.682C439.088 282.875 434.399 287.964 437.316 288.512C438.984 288.878 443.412 286.215 445.522 285.746C447.476 286.842 451.696 290.261 453.337 289.113C454.978 287.964 452.634 284.258 451.305 281.726C452.929 281.407 454.524 280.953 456.072 280.369ZM480.95 281.544C482.513 280.708 482.669 279.351 481.914 278.49C479.87 277.142 477.56 276.252 475.141 275.88C474.911 273.544 474.086 271.306 472.744 269.381C470.139 267.058 468.446 272.435 467.534 275.802C465.346 275.984 460.527 276.585 460.162 278.777C460.032 279.508 460.683 280.004 461.361 280.343C462.893 280.946 464.458 281.46 466.05 281.883C463.992 284.049 459.277 289.165 462.194 289.713C463.861 290.078 468.42 287.39 470.4 287.103C472.458 288.251 476.6 291.592 478.215 290.444C479.83 289.295 477.512 285.589 476.209 283.057C477.836 282.712 479.424 282.205 480.95 281.544ZM506.87 282.509C508.407 281.648 508.563 280.291 507.834 279.456C505.777 278.114 503.46 277.225 501.035 276.846C500.817 274.515 499.99 272.282 498.638 270.373C496.033 268.024 494.34 273.4 493.428 276.767C491.24 276.976 486.421 277.576 486.082 279.743C486.082 280.5 486.603 280.995 487.28 281.309C488.806 281.936 490.373 282.46 491.969 282.875C489.911 285.041 485.196 290.157 488.114 290.705C489.781 291.07 494.21 288.408 496.32 287.938C498.273 289.06 502.493 292.453 504.135 291.305C505.776 290.157 503.405 286.45 502.103 283.919C503.73 283.59 505.325 283.118 506.87 282.509ZM533.91 283.527C535.473 282.692 535.603 281.309 534.874 280.473C532.817 279.132 530.499 278.243 528.075 277.863C527.849 275.538 527.033 273.31 525.704 271.391C523.099 269.042 521.38 274.444 520.494 277.785C518.306 277.994 513.487 278.594 513.148 280.787C513.018 281.517 513.669 282.013 514.346 282.353C515.878 282.956 517.444 283.47 519.035 283.893C516.977 286.059 512.262 291.174 515.18 291.723C516.821 292.088 521.38 289.4 523.386 288.956C525.365 290.078 529.533 293.471 531.201 292.323C532.868 291.174 530.497 287.468 529.195 284.937C530.807 284.614 532.385 284.143 533.91 283.527ZM526.824 284.441C526.824 285.406 529.169 288.591 529.742 290.652C529.273 290.444 528.622 290.026 528.101 289.739C523.933 287.52 524.089 286.79 522.37 287.39C521.041 287.86 516.639 290.235 515.466 290.444C515.728 289.589 516.133 288.786 516.665 288.069C519.53 283.814 520.937 283.762 519.139 282.849C517.424 282.343 515.779 281.624 514.242 280.708C514.711 279.508 519.452 279.168 521.067 279.142C521.979 279.142 521.666 278.438 523.125 274.992C523.452 274.138 523.89 273.331 524.428 272.591C524.921 273.31 525.274 274.116 525.47 274.966C526.433 278.281 525.912 279.195 527.007 279.429C529.138 279.853 531.205 280.555 533.154 281.517C532.746 281.815 532.287 282.037 531.8 282.17C528.57 283.136 526.746 283.031 526.824 284.441ZM560.663 280.134C558.859 279.341 556.983 278.721 555.062 278.281C554.805 276.637 554.368 275.027 553.76 273.479C552.666 270.869 550.894 270.373 549.488 272.722C548.593 274.469 547.886 276.306 547.378 278.203C545.606 278.327 543.856 278.669 542.168 279.221C540.683 279.795 539.406 280.995 540.214 282.039C541.921 283.174 543.847 283.939 545.867 284.284C544.314 285.893 542.91 287.64 541.673 289.504C540.474 291.592 541.204 292.871 543.835 292.114C545.841 291.488 548.706 289.948 550.217 289.504C551.52 290.235 555.427 293.184 557.277 293.106C557.464 293.113 557.652 293.082 557.827 293.014C558.002 292.946 558.162 292.843 558.296 292.711C558.43 292.579 558.536 292.421 558.607 292.246C558.678 292.072 558.713 291.885 558.709 291.696C558.223 289.485 557.34 287.381 556.104 285.485C557.731 285.166 559.326 284.703 560.872 284.101C562.539 283.162 563.06 281.361 560.663 280.134ZM554.411 283.945C552.483 284.858 555.792 287.886 556.703 291.201C555.505 290.652 551.181 287.964 550.868 287.834C549.462 287.233 546.179 289.687 543.236 290.705L542.454 290.992C543.522 288.6 544.994 286.41 546.805 284.519C547.82 283.397 542.272 282.588 541.204 281.361C541.412 280.813 542.819 280.421 543.366 280.291C547.169 279.403 548.446 280.291 548.784 279.195C549.396 277.108 550.272 275.108 551.389 273.244C552.394 275.1 553.006 277.143 553.187 279.247C553.343 280.343 554.255 279.899 557.954 281.204C558.72 281.435 559.455 281.759 560.142 282.17C559.23 282.849 555.714 283.318 554.411 283.945ZM445.965 145.197C448.78 145.425 451.576 144.566 453.78 142.796C460.319 136.95 451.175 125.831 442.11 131.808C435.024 136.48 439.348 144.936 445.965 145.197ZM443.073 133.4C444.844 132.102 447.047 131.541 449.221 131.834C450.308 131.992 451.343 132.4 452.247 133.025C453.15 133.649 453.898 134.474 454.431 135.436C456.203 140.525 451.488 143.579 446.017 143.266C441.25 143.005 437.863 136.976 443.073 133.4ZM222.169 260.063C221.648 259.854 222.169 260.063 218.418 263.874C214.667 267.684 211.176 269.772 211.515 270.399C211.854 271.025 215.006 269.459 215.527 269.172C217.201 268.121 218.71 266.828 220.007 265.335C220.919 264.265 223.133 260.481 222.169 260.063ZM262.391 92.3969C262.521 91.7705 260.776 91.2224 259.499 91.379C256.686 91.7444 255.513 93.989 256.113 94.3805C258.307 94.1035 260.434 93.4315 262.391 92.3969ZM268.695 102.08C269.433 102.362 270.233 102.443 271.013 102.315C271.361 102.248 271.695 102.125 272.003 101.949C272.316 101.805 272.577 101.567 272.75 101.268C272.923 100.969 272.998 100.623 272.967 100.279C272.967 97.8779 269.633 92.5796 268.747 93.1538C268.434 93.3365 268.512 93.467 269.007 95.1113C269.325 96.2358 269.725 97.3351 270.206 98.3999C270.481 99.0224 270.699 99.6689 270.857 100.331C270.316 100.832 269.633 101.151 268.903 101.245C268.848 101.231 268.791 101.228 268.736 101.237C268.68 101.245 268.626 101.264 268.578 101.293C268.529 101.322 268.487 101.361 268.454 101.406C268.42 101.452 268.396 101.503 268.382 101.558C268.368 101.613 268.366 101.67 268.374 101.726C268.382 101.782 268.401 101.835 268.431 101.884C268.46 101.932 268.498 101.975 268.543 102.008C268.588 102.042 268.64 102.066 268.695 102.08ZM267.809 112.155C267.983 112.554 268.243 112.91 268.569 113.197C268.896 113.485 269.281 113.697 269.699 113.819C270.116 113.941 270.555 113.97 270.985 113.903C271.415 113.837 271.824 113.676 272.185 113.433C272.285 113.393 272.365 113.317 272.413 113.221C272.461 113.125 272.473 113.015 272.446 112.911C272.238 112.311 271.717 113.068 270.388 112.311C270.113 112.144 269.883 111.911 269.72 111.633C269.556 111.355 269.463 111.041 269.45 110.719C269.465 110.381 269.552 110.05 269.704 109.749C269.857 109.447 270.072 109.182 270.336 108.97C270.573 108.845 270.836 108.779 271.104 108.779C271.372 108.779 271.636 108.845 271.873 108.97C272.29 109.31 272.759 108.657 272.342 108.344C269.841 105.447 266.324 109.127 267.809 112.155ZM273.905 223.863C273.293 223.874 272.694 224.037 272.161 224.337C271.628 224.637 271.178 225.064 270.85 225.581C270.522 226.099 270.327 226.689 270.283 227.3C270.239 227.911 270.347 228.523 270.596 229.083C272.316 232.554 278.229 231.275 278.125 227.517C278.103 226.994 277.974 226.481 277.747 226.009C277.519 225.538 277.198 225.118 276.803 224.776C276.407 224.434 275.946 224.176 275.448 224.019C274.95 223.862 274.424 223.809 273.905 223.863ZM276.171 228.326C276.14 228.581 276.06 228.828 275.934 229.052C275.808 229.276 275.639 229.473 275.437 229.632C275.235 229.791 275.004 229.908 274.756 229.977C274.509 230.046 274.251 230.066 273.996 230.035C273.741 230.004 273.495 229.924 273.271 229.797C273.047 229.671 272.851 229.502 272.692 229.3C272.534 229.097 272.417 228.866 272.348 228.618C272.279 228.37 272.259 228.111 272.29 227.856C272.29 227.617 272.337 227.381 272.429 227.161C272.521 226.94 272.656 226.741 272.825 226.573C272.995 226.406 273.196 226.273 273.417 226.184C273.638 226.096 273.875 226.052 274.113 226.055C274.413 226.023 274.716 226.06 274.999 226.165C275.282 226.27 275.537 226.439 275.744 226.659C275.951 226.879 276.104 227.143 276.192 227.433C276.28 227.722 276.299 228.028 276.249 228.326H276.171ZM273.201 241.558C272.588 241.563 271.985 241.722 271.448 242.02C270.911 242.318 270.457 242.746 270.128 243.266C269.799 243.785 269.605 244.378 269.564 244.992C269.523 245.606 269.636 246.22 269.893 246.778C271.586 250.197 277.526 248.997 277.421 245.212C277.396 244.691 277.265 244.18 277.036 243.71C276.807 243.241 276.486 242.822 276.092 242.481C275.697 242.139 275.238 241.881 274.741 241.723C274.244 241.564 273.72 241.508 273.201 241.558ZM275.468 246.021C275.476 246.303 275.424 246.584 275.315 246.844C275.207 247.104 275.044 247.338 274.838 247.53C274.632 247.722 274.388 247.868 274.121 247.958C273.855 248.048 273.572 248.08 273.292 248.052C273.012 248.024 272.741 247.937 272.497 247.795C272.254 247.654 272.043 247.463 271.879 247.233C271.715 247.004 271.602 246.743 271.547 246.466C271.492 246.19 271.497 245.905 271.56 245.63C271.567 245.15 271.762 244.692 272.103 244.355C272.445 244.018 272.905 243.829 273.384 243.829C273.671 243.812 273.958 243.858 274.226 243.964C274.493 244.07 274.735 244.233 274.933 244.441C275.131 244.65 275.282 244.899 275.374 245.172C275.467 245.445 275.498 245.735 275.468 246.021ZM262.26 95.9204C262.26 96.338 262.417 96.7556 262.573 97.643C262.601 97.813 262.663 97.9757 262.754 98.1217C262.846 98.2677 262.965 98.394 263.106 98.4935C263.246 98.593 263.405 98.6637 263.573 98.7013C263.741 98.739 263.914 98.743 264.084 98.7131C264.421 98.6554 264.723 98.4671 264.922 98.1887C265.122 97.9103 265.205 97.5642 265.152 97.2254C265.152 96.7556 264.917 96.1031 264.865 95.6333C264.827 95.2872 264.654 94.9704 264.383 94.7525C264.111 94.5347 263.765 94.4338 263.42 94.4718C263.074 94.5099 262.758 94.6839 262.541 94.9556C262.323 95.2272 262.222 95.5743 262.26 95.9204ZM273.514 95.5811C273.558 95.8877 273.712 96.1678 273.947 96.3695C274.181 96.5711 274.481 96.6805 274.79 96.6773C274.979 96.6754 275.165 96.6332 275.337 96.5535C275.508 96.4739 275.66 96.3586 275.783 96.2154C275.906 96.0721 275.998 95.9042 276.051 95.7229C276.105 95.5415 276.119 95.3508 276.093 95.1635C275.885 94.0151 275.832 93.8846 275.78 93.5714C275.739 93.2253 275.562 92.9098 275.288 92.6945C275.015 92.4791 274.667 92.3814 274.322 92.423C273.976 92.4645 273.661 92.6418 273.446 92.9159C273.231 93.19 273.134 93.5385 273.175 93.8846C273.253 94.25 273.358 94.6676 273.514 95.5811ZM312.355 263.43C312.667 263.743 313.162 263.274 312.849 262.96C306.545 255.365 305.034 247.692 306.155 238.087C306.169 238.037 306.172 237.983 306.162 237.932C306.152 237.88 306.131 237.831 306.099 237.79C306.068 237.748 306.027 237.714 305.98 237.69C305.933 237.667 305.881 237.655 305.829 237.655C305.777 237.655 305.725 237.667 305.678 237.69C305.631 237.714 305.59 237.748 305.559 237.79C305.527 237.831 305.506 237.88 305.496 237.932C305.486 237.983 305.489 238.037 305.503 238.087C302.846 247.77 304.696 256.488 312.355 263.43Z" fill="#333399"/>
<path d="M365.601 235.19C365.259 235.153 364.917 235.253 364.649 235.468C364.38 235.683 364.207 235.996 364.168 236.338V238.061C364.168 238.407 364.305 238.739 364.55 238.984C364.794 239.228 365.125 239.366 365.471 239.366C365.816 239.366 366.147 239.228 366.392 238.984C366.636 238.739 366.773 238.407 366.773 238.061V236.677C366.799 236.502 366.788 236.323 366.742 236.152C366.697 235.98 366.616 235.82 366.507 235.681C366.397 235.542 366.26 235.426 366.104 235.342C365.949 235.257 365.777 235.206 365.601 235.19ZM379.85 239.548C380.018 239.57 380.189 239.559 380.352 239.514C380.515 239.469 380.668 239.392 380.801 239.288C380.934 239.183 381.046 239.053 381.128 238.905C381.211 238.758 381.264 238.595 381.283 238.426V236.73C381.283 236.384 381.146 236.052 380.902 235.807C380.657 235.562 380.326 235.425 379.981 235.425C379.637 235.431 379.31 235.571 379.067 235.814C378.824 236.058 378.685 236.386 378.678 236.73V238.113C378.66 238.285 378.676 238.458 378.726 238.623C378.775 238.788 378.856 238.942 378.965 239.076C379.074 239.209 379.209 239.32 379.361 239.401C379.512 239.482 379.679 239.532 379.85 239.548ZM369.014 248.475C371.144 249.152 373.409 249.287 375.604 248.866C375.865 248.866 375.839 248.449 375.604 248.475L373.963 248.24C372.342 248.105 370.713 248.105 369.092 248.24C368.831 248.031 368.753 248.449 369.014 248.475Z" fill="#333399"/>
</svg>
