<svg width="1316" height="731" viewBox="0 0 1316 731" fill="none" xmlns="http://www.w3.org/2000/svg">
<path fill-rule="evenodd" clip-rule="evenodd" d="M342.148 92.8282C356.583 124.312 356.322 158.927 353.791 192.919C351.296 226.421 348.036 261.346 327.739 286.34C307.379 311.413 276.146 324.282 244.359 327.679C214.566 330.863 186.452 316.205 157.884 304.492C127.466 292.019 92.0055 285.702 73.0072 257.42C53.6098 228.544 53.6503 190.621 58.6866 156.821C63.4004 125.185 79.0384 97.5829 100.14 75.3259C120.145 54.225 147.165 45.1721 174.088 35.0988C205.842 23.2178 237.548 0.171382 270.63 11.5354C304.422 23.1432 326.603 58.9224 342.148 92.8282Z" fill="#FEFEAD"/>
<path fill-rule="evenodd" clip-rule="evenodd" d="M1185.09 868.364C1148.34 929.205 1089.32 968.73 1028.72 1003.68C969.001 1038.13 905.98 1072.93 840.141 1067.35C774.093 1061.76 716.197 1023.63 673.731 973.617C633.93 926.746 626.337 862.122 613.225 800.129C599.264 734.12 569.039 666.664 595.087 601.775C621.682 535.525 686.07 491.806 749.23 461.325C808.346 432.795 873.233 427.456 935.359 437.558C994.258 447.136 1040.82 482.527 1088.99 516.574C1145.81 556.73 1221.52 583.912 1240.44 653.162C1259.76 723.897 1224.67 802.841 1185.09 868.364Z" fill="#FEFEAD"/>
</svg>
