<svg width="775" height="628" viewBox="0 0 775 628" fill="none" xmlns="http://www.w3.org/2000/svg">
<path fill-rule="evenodd" clip-rule="evenodd" d="M668.094 188.947C707.365 206.532 735.474 239.078 760.953 272.902C786.063 306.238 811.625 341.532 813.139 381.502C814.658 421.599 796.026 459.202 769.117 488.412C743.897 515.788 705.63 525.126 669.351 537.584C630.723 550.85 592.426 573.994 551.515 563.138C509.745 552.054 478.72 516.598 455.739 480.902C434.229 447.491 426.227 408.9 427.706 370.827C429.109 334.731 446.933 304.143 463.829 272.681C483.758 235.574 494.496 188.078 534.705 171.595C575.777 154.758 625.802 170.01 668.094 188.947Z" fill="#FFFF99" fill-opacity="0.79"/>
<path fill-rule="evenodd" clip-rule="evenodd" d="M221.701 523.65C210.583 543.434 192.759 556.362 174.466 567.813C156.437 579.098 137.413 590.502 117.562 588.838C97.6481 587.168 80.2117 574.944 67.4355 558.839C55.4611 543.746 53.2093 522.833 49.2919 502.783C45.1209 481.436 36.0462 459.654 43.9392 438.583C51.998 417.07 71.4403 402.772 90.5044 392.764C108.348 383.397 127.918 381.529 146.646 384.666C164.402 387.641 178.421 399.003 192.928 409.926C210.039 422.808 232.853 431.449 238.517 453.835C244.303 476.702 233.674 502.345 221.701 523.65Z" fill="#CD126F" fill-opacity="0.62"/>
<path d="M522.468 252.684C524.949 253.907 527.666 254.574 530.431 254.639C530.587 254.621 530.737 254.573 530.873 254.496C531.01 254.42 531.129 254.317 531.226 254.194C531.322 254.071 531.393 253.93 531.434 253.78C531.475 253.629 531.486 253.471 531.466 253.316C531.236 251.505 529.195 253.058 523.531 250.441L523.819 248.314C523.963 247.71 523.244 246.733 522.468 247.02C521.691 247.308 521.49 248.228 521.26 249.895C521.03 251.563 520.915 251.908 522.468 252.684ZM222.375 260.849C225.835 259.908 229.084 258.318 231.949 256.163C233.07 255.3 232.696 253.288 232.38 252.138C232.29 251.839 232.093 251.585 231.827 251.423C231.561 251.261 231.244 251.203 230.938 251.26C230.631 251.317 230.357 251.485 230.167 251.732C229.977 251.979 229.884 252.287 229.908 252.598C229.962 253.221 230.078 253.837 230.253 254.438C223.439 259.411 220.794 258.175 221.196 260.188C221.286 260.417 221.452 260.609 221.667 260.73C221.882 260.85 222.132 260.892 222.375 260.849ZM214.555 255.53C220.305 255.53 218.35 252.138 216.798 252.655L214.584 253C212.686 244.001 214.21 242.104 212.571 242.046C212.324 242.031 212.081 242.112 211.893 242.273C211.705 242.434 211.587 242.662 211.565 242.909C211.362 246.464 211.623 250.03 212.341 253.518C212.658 255.07 213.233 255.53 214.555 255.53ZM381.506 250.585C383.145 250.585 391.77 248.716 393.236 248.486C395.393 248.113 397.951 247.451 398.124 245.123C398.124 243.685 397.089 242.018 395.91 242.88C395.665 243.052 395.484 243.301 395.395 243.587C395.307 243.874 395.316 244.181 395.421 244.461C395.853 245.583 394.933 245.496 381.046 248.515C380.791 248.594 380.575 248.766 380.441 248.997C380.307 249.228 380.264 249.501 380.322 249.762C380.38 250.023 380.534 250.253 380.754 250.405C380.973 250.558 381.242 250.622 381.506 250.585ZM192.418 180.205C193.05 180.924 194.603 180.205 194.143 179.113C191.268 172.098 185.978 164.278 182.643 156.573C182.125 155.337 181.09 153.238 180.084 153.123C179.958 153.105 179.829 153.123 179.713 153.173C179.596 153.224 179.496 153.306 179.423 153.41C178.79 154.273 179.71 156.659 180.141 157.665C181.464 160.512 187.875 175.002 192.418 180.205ZM285.625 168.073C285.679 168.297 285.791 168.504 285.949 168.672C286.108 168.839 286.307 168.963 286.528 169.03C286.749 169.097 286.984 169.105 287.209 169.053C287.433 169.001 287.641 168.891 287.81 168.734C290.184 166.573 292.341 164.185 294.25 161.604C302.875 189.204 302.875 190.182 304.226 190.182C304.42 190.176 304.61 190.129 304.784 190.044C304.958 189.958 305.112 189.836 305.234 189.686C305.357 189.536 305.446 189.362 305.496 189.174C305.545 188.987 305.553 188.791 305.52 188.6C302.3 178.423 298.908 168.475 295.975 158.327C295.909 158.074 295.771 157.847 295.576 157.673C295.382 157.5 295.14 157.388 294.882 157.351C294.624 157.314 294.361 157.354 294.126 157.466C293.891 157.579 293.694 157.758 293.56 157.982C291.909 160.578 289.981 162.988 287.81 165.169C286.085 157.292 282.06 139.294 282.06 139.294C281.988 139.004 281.803 138.755 281.547 138.601C281.291 138.448 280.984 138.402 280.695 138.475C280.405 138.547 280.156 138.732 280.002 138.988C279.848 139.244 279.803 139.551 279.875 139.84C280.853 144.297 285.021 166.089 285.625 168.073ZM135.866 317.63C126.609 313.203 118.358 308.66 108.87 303.658C107.03 302.68 105.765 306.044 108.64 306.82C116.923 311.991 125.756 316.224 134.975 319.441C136.125 319.758 136.93 318.263 135.866 317.63ZM143.226 251.246C143.424 251.421 143.67 251.532 143.932 251.562C144.195 251.593 144.46 251.543 144.693 251.419C146.59 250.499 144.146 248.228 145.066 234.571C168.383 262.718 167.089 261.999 168.066 261.999C168.269 262.012 168.471 261.966 168.648 261.868C168.825 261.77 168.971 261.623 169.068 261.444C169.164 261.266 169.208 261.064 169.194 260.862C169.179 260.659 169.107 260.465 168.986 260.303C165.335 255.703 149.35 235.836 145.095 230.431C144.935 230.229 144.72 230.076 144.476 229.992C144.232 229.907 143.969 229.895 143.718 229.955C143.467 230.016 143.238 230.147 143.06 230.333C142.881 230.519 142.759 230.753 142.709 231.006C142.124 236.257 142.028 241.551 142.421 246.819C133.796 239.085 125.545 230.891 116.834 223.359C116.57 223.147 116.24 223.035 115.902 223.043C115.564 223.05 115.24 223.177 114.986 223.4C114.731 223.623 114.564 223.929 114.513 224.263C114.462 224.597 114.531 224.939 114.706 225.228C118.099 230.489 137.246 245.813 143.226 251.246ZM370.006 144.613C370.006 144.895 370.118 145.165 370.318 145.365C370.517 145.564 370.788 145.677 371.07 145.677C371.352 145.677 371.623 145.564 371.822 145.365C372.022 145.165 372.134 144.895 372.134 144.613C372.627 134.053 372.184 123.47 370.811 112.988C370.782 112.711 370.673 112.449 370.497 112.233C370.322 112.018 370.087 111.857 369.822 111.772C369.558 111.687 369.274 111.68 369.005 111.753C368.737 111.826 368.495 111.975 368.31 112.183C367.016 113.85 370.121 119.112 370.006 144.613ZM447.804 194.551C469.683 157.636 468.504 159.477 468.331 158.815C467.843 157.148 466.463 157.953 455.394 161.288C458.269 151.082 461.863 140.185 464.249 129.864C464.298 129.53 464.221 129.19 464.033 128.91C463.844 128.63 463.558 128.431 463.23 128.352C462.902 128.273 462.556 128.319 462.261 128.482C461.965 128.645 461.741 128.912 461.633 129.232C458.384 140.732 455.164 151.973 452.059 163.013C452.009 163.241 452.017 163.478 452.084 163.702C452.15 163.926 452.273 164.13 452.439 164.293C452.606 164.457 452.812 164.576 453.037 164.639C453.262 164.701 453.499 164.706 453.726 164.652C453.726 164.652 461.345 162.294 464.421 161.288L446.05 193.574C445.942 193.805 445.925 194.068 446.003 194.311C446.081 194.553 446.248 194.757 446.471 194.881C446.693 195.006 446.955 195.041 447.202 194.979C447.45 194.918 447.665 194.765 447.804 194.551ZM653.366 278.875C651.871 278.156 624.214 295.349 623.926 295.55C622.92 296.269 623.926 298.051 624.961 297.505C626.629 296.758 653.05 282.066 653.941 280.485C654.01 280.342 654.049 280.186 654.057 280.028C654.065 279.869 654.041 279.71 653.988 279.561C653.934 279.411 653.852 279.274 653.745 279.156C653.639 279.039 653.51 278.943 653.366 278.875ZM580.169 246.014C580.169 246.014 607.884 224.883 613.059 220.858C614.18 219.966 613.059 217.983 611.736 218.126C606.52 218.251 601.324 218.838 596.211 219.88C603.632 211.963 610.204 203.291 615.819 194.005C616.768 192.453 614.468 190.843 613.548 192.424C607.214 202.756 599.676 212.301 591.094 220.858C590.174 221.749 590.749 223.934 592.244 223.733C597.319 222.441 602.492 221.575 607.711 221.145C607.711 221.145 585.746 238.826 578.961 244.433C578.847 244.616 578.792 244.83 578.802 245.046C578.812 245.261 578.888 245.469 579.019 245.64C579.15 245.812 579.33 245.94 579.536 246.006C579.741 246.073 579.962 246.076 580.169 246.014ZM540.523 162.783C558.175 132.365 561.251 127.938 558.29 127.19C557.025 126.874 557.083 126.989 538.539 161.69C538.452 161.946 538.458 162.224 538.555 162.476C538.653 162.728 538.836 162.938 539.073 163.068C539.309 163.198 539.585 163.241 539.85 163.189C540.115 163.137 540.353 162.993 540.523 162.783Z" fill="#333399"/>
<path d="M622 350.434C610.27 313.433 580.629 284.971 540.609 272.378C540.582 271.645 540.505 270.915 540.379 270.193C551.304 265.421 553.748 249.004 551.333 234.716C553.431 231.294 559.009 213.699 554.898 216.114L547.394 220.542C546.33 217.667 545.094 214.993 543.771 212.348C544.059 207.748 539.861 199.526 532.473 194.149C525.688 189.204 514.015 184.777 496.995 191.849C483.713 197.369 468.734 209.559 466.463 227.269C463.588 250.269 471.206 261.424 456.975 282.786C441.25 275.665 424.488 271.104 407.324 269.273C407.325 267.985 407.238 266.697 407.065 265.421C414.396 261.712 415.949 249.637 416.265 245.698C424.89 238.223 425.896 223.331 419.14 222.986C420.877 212.317 421.541 201.501 421.124 190.699C420.75 184.001 417.875 182.506 416.553 182.218C415.619 182.042 414.655 182.131 413.771 182.477C412.886 182.823 412.117 183.411 411.55 184.173C409.394 179.774 405.254 180.321 402.925 183.656C402.697 182.472 402.102 181.39 401.225 180.563C400.347 179.736 399.233 179.205 398.038 179.046C396.843 178.887 395.628 179.108 394.565 179.677C393.502 180.246 392.645 181.135 392.115 182.218C391.558 181.031 390.66 180.037 389.536 179.361C388.412 178.686 387.113 178.36 385.803 178.424C384.494 178.489 383.233 178.942 382.181 179.725C381.129 180.508 380.334 181.586 379.896 182.822C377.021 176.583 369.69 178.021 368.051 184.346C365.895 179.487 360.001 179.516 357.96 185.151C352.584 181.183 348.358 185.151 347.495 191.677C346.973 202.774 347.435 213.896 348.875 224.912C339.129 222.727 346.719 245.554 352.526 246.101C353.533 254.726 357.098 264.213 364.026 266.513C364.026 267.663 363.854 268.842 363.854 269.992C345.265 272.96 327.376 279.303 311.069 288.708C302.099 282.383 282.146 273.787 262.97 275.368C259.496 268.027 256.881 260.309 255.179 252.368C253.914 245.439 257.163 242.708 257.134 236.728C260.856 229.227 261.784 220.644 259.75 212.521C250.694 183.771 195.983 194.696 197.535 226.263C197.736 229.857 198.053 233.451 198.369 236.239C191.613 238.281 192.619 238.769 194.488 246.992C195.494 251.477 196.644 255.186 201.359 254.208C203.515 263.552 208.949 278.473 221.771 278.473C222.548 278.473 221.771 277.984 222.49 282.814C190.319 296.816 149.925 323.064 139.46 369.064C136.93 380.162 135.406 395.917 142.651 407.819C150.615 421.073 164.703 421.907 174.823 421.246C172.454 434.261 171.691 447.518 172.551 460.719C172.557 460.904 172.613 461.083 172.713 461.238C172.813 461.393 172.954 461.517 173.12 461.597C173.286 461.677 173.472 461.71 173.655 461.692C173.839 461.674 174.014 461.606 174.161 461.496C175.714 460.576 172.666 459.598 177.525 421.044C204.608 418.543 230.425 406.899 254.288 394.652C258.226 397.527 262.136 400.402 266.19 402.989C269.523 409.728 274.63 415.431 280.963 419.484C287.295 423.536 294.612 425.786 302.128 425.989C301.409 438.092 301.409 450.227 302.128 462.329C302.138 462.476 302.179 462.618 302.246 462.749C302.313 462.879 302.405 462.995 302.518 463.089C302.631 463.183 302.761 463.253 302.901 463.295C303.042 463.338 303.189 463.351 303.335 463.336C305.808 463.106 302.616 461.869 304.571 425.961C328.491 425.961 348.128 410.349 367.821 398.418C390.994 409.027 447.804 428.778 477.848 423.086C479.228 435.333 479.026 446.948 480.205 458.793C480.243 459.006 480.355 459.198 480.52 459.337C480.686 459.475 480.895 459.551 481.111 459.551C481.327 459.551 481.536 459.475 481.701 459.337C481.867 459.198 481.978 459.006 482.016 458.793C482.771 446.69 482.28 434.542 480.55 422.539C501.394 417.594 514.188 402.903 517.58 380.076C518.96 379.156 520.455 378.121 522.008 376.942C539.804 384.043 576.633 401.322 594.63 401.954C593.796 415.323 592.618 429.439 592.417 443.297C592.457 443.531 592.578 443.743 592.76 443.896C592.941 444.05 593.171 444.134 593.408 444.134C593.646 444.134 593.876 444.05 594.057 443.896C594.239 443.743 594.36 443.531 594.4 443.297C594.803 439.473 597.419 406.842 597.275 401.868C626.083 401.207 630.625 377.632 622 350.434ZM416.84 227.557C417.616 226.522 418.048 225.314 419.169 225.659C423.194 226.838 419.974 236.843 416.61 241.299C416.898 236.728 416.984 232.099 416.84 227.557ZM348.214 227.557C349.134 227.557 349.019 227.959 351.089 228.362L352.239 242.564C347.984 238.626 344.908 227.614 348.214 227.614V227.557ZM547.969 224.682C548.091 224.278 548.369 223.939 548.741 223.739C549.113 223.54 549.549 223.496 549.953 223.618C550.357 223.74 550.696 224.018 550.895 224.39C551.095 224.762 551.138 225.198 551.016 225.602C550.01 229.167 549.234 231.754 548.573 234.227C548.403 234.534 548.164 234.798 547.874 234.998C547.585 235.198 547.253 235.327 546.905 235.377C544.375 235.463 547.078 227.269 547.969 224.624V224.682ZM499.583 236.182C501.221 234.946 503.205 236.527 503.521 236.556C506.224 238.281 509.272 235.779 508.495 235.061L507.92 234.601C505.793 232.933 501.423 229.483 502.343 227.126C503.033 225.343 505.85 225.602 507.69 225.516C507.756 225.514 507.82 225.497 507.878 225.466C507.935 225.436 507.986 225.393 508.024 225.34C508.063 225.288 508.089 225.227 508.101 225.163C508.113 225.098 508.11 225.032 508.093 224.969C507.805 224.049 507.46 223.129 507.115 222.094C517.98 216.706 529.893 213.762 542.018 213.469C543.254 216.344 544.318 219.076 545.266 221.778C541.673 223.819 537.59 226.062 536.641 230.144C535.787 230.038 534.92 230.125 534.104 230.399C533.288 230.673 532.544 231.126 531.926 231.726C527.413 226.292 508.725 226.752 504.959 226.896C500.1 227.097 512.923 236.901 516.459 239.661C528.333 248.889 536.095 242.536 533.134 234.112C533.549 233.603 534.095 233.216 534.712 232.993C535.33 232.771 535.997 232.72 536.641 232.847C536.749 233.393 536.923 233.924 537.159 234.428C537.016 234.357 536.859 234.32 536.699 234.32C536.539 234.32 536.382 234.357 536.239 234.428C535.06 235.176 536.239 236.182 538.941 240.983C538.608 241.322 538.253 241.639 537.878 241.932C536.785 242.737 537.734 246.244 541.385 241.932C541.932 241.271 540.896 239.344 539.746 237.648C541.134 238.594 542.798 239.051 544.474 238.947C546.15 238.843 547.744 238.183 549.004 237.073C550.261 244.792 549.549 252.703 546.934 260.073C544.059 267.117 536.843 267.519 538.309 270.193C538.688 279.672 537.916 289.162 536.009 298.454C528.62 296.844 514.073 278.818 508.265 270.452C508.867 263.461 507.965 256.423 505.62 249.809C503.694 246.474 499.87 244.951 498.864 241.184C498.471 240.344 498.33 239.409 498.458 238.49C498.585 237.572 498.976 236.71 499.583 236.009V236.182ZM543.168 231.381C542.852 232.329 542.65 233.652 541.615 233.652C540.58 233.652 540.063 232.444 540.178 231.409C540.293 230.374 540.58 227.988 541.673 227.356C541.883 227.252 542.114 227.198 542.348 227.198C542.583 227.198 542.814 227.252 543.024 227.356C544.375 227.729 543.656 229.742 543.168 231.208V231.381ZM527.672 237.993C527.355 238.769 527.039 240.178 526.119 240.609C525.958 240.688 525.781 240.729 525.602 240.729C525.422 240.729 525.245 240.688 525.084 240.609C523.359 239.977 525.257 233.566 526.809 232.329C526.944 232.191 527.113 232.09 527.298 232.034C527.483 231.978 527.679 231.97 527.868 232.01C528.057 232.05 528.233 232.137 528.38 232.264C528.526 232.39 528.639 232.551 528.706 232.732C529.31 234.054 527.844 237.389 527.672 237.821V237.993ZM521.375 235.204C521.001 235.952 520.829 236.642 519.852 236.642C519.622 236.658 519.391 236.617 519.181 236.523C518.97 236.429 518.786 236.285 518.644 236.104C518.502 235.922 518.407 235.708 518.367 235.481C518.327 235.254 518.343 235.021 518.414 234.802C518.73 233.853 519.075 231.697 520.225 231.122C520.407 231.038 520.605 230.992 520.806 230.987C521.006 230.982 521.206 231.019 521.392 231.094C521.578 231.17 521.746 231.282 521.887 231.426C522.027 231.569 522.137 231.739 522.209 231.927C522.611 232.876 521.95 234.169 521.375 235.204ZM507 272.062C515.165 286.149 536.67 306.562 538.338 299.719C540.218 291.597 541.087 283.273 540.925 274.937C580.313 288.852 607.05 314.353 618.694 348.767C610.266 344.744 601.005 342.774 591.669 343.017C591.266 333.558 578.3 315.273 573.327 309.782C572.32 308.661 570.451 310.098 571.544 311.219C579.001 319.664 584.708 329.504 588.334 340.171C574.246 329.562 545.87 314.756 506.971 326.946C496.88 309.72 482.144 295.682 464.45 286.437C477.183 278.11 491.826 273.163 507 272.062ZM357.069 207.202C374.358 202.483 392.524 201.96 410.055 205.678C409.76 210.55 409.914 215.439 410.515 220.283H409.998C407.611 209.301 392.316 205.908 387.17 217.408C384.541 216.516 381.692 216.516 379.063 217.408C374.089 207.058 359.685 210.393 357.04 220.628H356.494C357.098 216.18 357.291 211.685 357.069 207.202ZM396.169 230.863C396.686 229.397 401.344 218.529 404.363 218.213C404.614 218.21 404.862 218.267 405.087 218.379C405.312 218.491 405.507 218.654 405.656 218.857C405.805 219.059 405.904 219.294 405.944 219.542C405.984 219.79 405.964 220.044 405.886 220.283C403.32 223.939 401.033 227.783 399.044 231.783C398.325 233.566 395.508 232.876 396.169 230.863ZM392 226.838C391.655 227.701 390.103 228.218 389.556 227.212C389.01 226.206 390.333 222.382 394.07 216.776C395.019 215.367 395.91 214.677 396.686 214.792C396.939 214.864 397.17 214.997 397.36 215.179C397.549 215.361 397.691 215.586 397.773 215.836C397.856 216.086 397.876 216.351 397.831 216.61C397.787 216.869 397.68 217.114 397.52 217.322C395.332 220.279 393.481 223.471 392 226.838ZM366.988 231.611C368.224 228.908 369.604 226.177 370.926 223.503C371.068 223.245 371.276 223.03 371.528 222.88C371.781 222.73 372.07 222.651 372.364 222.651C372.658 222.651 372.947 222.73 373.199 222.88C373.452 223.03 373.66 223.245 373.801 223.503C373.982 223.776 374.078 224.096 374.078 224.423C374.078 224.75 373.982 225.07 373.801 225.343C372.536 227.844 371.243 230.461 369.863 232.991C368.77 234.428 366.125 233.336 366.988 231.611ZM363.509 227.988L363.336 228.189C362.445 229.483 360.203 228.649 360.806 227.011C362.466 222.593 364.586 218.363 367.131 214.389C368.368 212.894 370.869 214.188 370.006 215.942C367.965 220.024 365.464 223.848 363.509 227.988ZM353.245 228.247C355.085 227.471 355.603 225.372 356.12 223.561L356.724 223.388C356.573 225.383 356.818 227.387 357.445 229.287C358.072 231.186 359.067 232.943 360.375 234.457C361.926 235.98 363.869 237.042 365.988 237.525C368.107 238.007 370.319 237.892 372.376 237.191C374.433 236.491 376.255 235.232 377.639 233.556C379.023 231.881 379.914 229.853 380.213 227.701C379.915 230.469 379.791 233.254 379.839 236.038C379.839 237.763 379.436 239.919 381.564 240.063H384.439C385.934 240.063 386.336 237.476 384.611 237.447H382.484C382.316 232.324 382.595 227.197 383.318 222.123C383.519 220.714 381.478 220.513 381.19 221.836C379.925 228.017 381.19 224.481 380.069 219.909C382.076 219.19 384.272 219.19 386.279 219.909C385.646 222.214 385.521 224.629 385.913 226.987C386.305 229.345 387.205 231.59 388.55 233.566C389.575 234.893 390.873 235.984 392.356 236.766C393.839 237.548 395.473 238.002 397.147 238.098C398.821 238.193 400.496 237.928 402.058 237.319C403.621 236.711 405.034 235.774 406.203 234.572C409.027 231.42 410.53 227.302 410.4 223.072H410.946C411.291 225.573 411.809 229.023 414.454 228.822C414.166 238.654 415.029 255.502 407.238 261.654C406.231 262.459 405.081 263.379 404.938 264.299C404.578 267.346 404.578 270.424 404.938 273.471C405.771 281.434 391.828 297.189 384.611 303.917C370.696 284.999 366.7 283.131 366.729 266.542C366.729 264.874 366.528 264.616 365.378 264.041C353.734 258.406 354.798 242.162 353.245 228.247ZM363.998 272.522C364.314 281.348 371.243 293.279 383.461 306.131C385.934 309.351 407.784 282.527 407.353 276.719V271.861C466.204 278.789 508.38 312.657 515.108 358.312C490.67 353.511 459.793 359.146 454.56 360.152C452.316 345.854 448.088 331.938 441.996 318.809C441.894 318.554 441.693 318.35 441.44 318.242C441.187 318.134 440.901 318.131 440.645 318.234C440.39 318.337 440.186 318.537 440.078 318.791C439.97 319.044 439.967 319.33 440.07 319.586C445.357 332.544 449.213 346.04 451.57 359.836C436.448 343.908 413.448 336.836 381.391 338.273C362.097 339.168 342.93 341.892 324.15 346.409C325.652 337.642 329.231 329.361 334.586 322.259C334.704 322.045 334.739 321.796 334.686 321.557C334.633 321.319 334.496 321.108 334.299 320.964C334.102 320.819 333.859 320.752 333.616 320.773C333.372 320.795 333.145 320.904 332.976 321.081C326.935 328.545 322.969 337.47 321.476 346.956C300.632 351.956 280.39 359.195 261.101 368.547C263.746 312.226 315.813 282.038 363.998 272.522ZM239.309 219.277C239.279 222.007 239.443 224.735 239.798 227.442C229.448 227.701 213.003 231.726 200.755 235.521C200.439 232.991 199.72 228.391 199.691 225.659C212.015 219.786 225.764 217.571 239.309 219.277ZM230.166 234.716C224.416 244.491 225.653 246.216 223.726 246.216C223.51 246.229 223.294 246.19 223.096 246.102C222.898 246.014 222.724 245.88 222.589 245.711C222.454 245.542 222.361 245.343 222.319 245.13C222.277 244.918 222.286 244.699 222.346 244.491C224.963 234.601 227.464 232.761 228.729 232.531C229.005 232.474 229.291 232.502 229.551 232.61C229.811 232.718 230.032 232.902 230.187 233.137C230.342 233.372 230.422 233.648 230.419 233.929C230.415 234.211 230.327 234.485 230.166 234.716ZM221.283 236.872C220.219 238.626 219.96 241.069 218.408 240.696C216.855 240.322 217.976 236.814 218.896 234.946C219.816 233.077 220.621 233.048 221.168 233.192C221.476 233.276 221.749 233.454 221.951 233.701C222.152 233.949 222.27 234.253 222.289 234.572C222.176 235.418 221.828 236.215 221.283 236.872ZM199.893 242.622C199.576 243.369 199.548 245.669 197.995 245.669C197.693 245.681 197.396 245.591 197.151 245.414C196.906 245.237 196.727 244.982 196.644 244.692C196.492 242.681 197.131 240.689 198.426 239.143C198.694 238.904 199.029 238.756 199.386 238.72C199.742 238.684 200.101 238.762 200.41 238.942C201.1 239.402 200.956 240.609 199.893 242.536V242.622ZM200.956 249.321C203.573 239.919 205.068 238.539 205.959 238.338C206.142 238.296 206.334 238.306 206.511 238.367C206.689 238.428 206.846 238.537 206.965 238.683C207.356 239.136 207.552 239.725 207.511 240.322L203.716 250.126C203.598 250.492 203.34 250.796 202.997 250.971C202.655 251.146 202.257 251.178 201.891 251.06C201.525 250.942 201.221 250.683 201.046 250.341C200.87 249.998 200.838 249.6 200.956 249.234V249.321ZM203.831 253.662C209.351 252.052 211.134 252.512 210.53 244.117C210.329 241.731 209.869 236.297 212.284 236.383C214.239 236.383 214.296 245.468 217.2 248.286C220.104 251.103 223.87 249.119 227.033 248.286C235.658 245.928 233.76 242.248 233.128 230.834L240.373 230.259C243.621 247.107 247.991 234.486 250.924 232.588C252.793 231.409 254.403 233.997 254.748 235.981C255.409 240.236 251.873 244.893 252.62 251.132C254.314 260.162 257.215 268.923 261.245 277.179C254.949 289.139 236.865 300.179 228.815 304.549C225.423 292.244 225.135 276.087 223.065 276.144C213.52 276.202 207.253 268.986 203.716 253.576L203.831 253.662ZM222.749 285.574C223.266 289.916 225.394 308.574 228.499 307.022C236.319 303.342 260.124 287.702 263.516 277.639C268.548 278.789 284.245 275.742 308.625 290.433C290.634 301.179 276.198 316.975 267.11 335.858C243.851 332.983 215.073 329.389 190.894 342.154C198.283 324.732 202.71 323.007 200.611 321.627C200.503 321.553 200.38 321.501 200.251 321.475C200.122 321.449 199.989 321.45 199.86 321.477C199.731 321.504 199.609 321.556 199.501 321.631C199.393 321.707 199.301 321.803 199.231 321.914C198.484 323.036 187.99 340.372 187.731 343.908C183.678 346.381 175.024 352.706 172.436 357.679C161.867 357.885 151.568 361.053 142.709 366.822C151.449 332.983 179.078 304.894 222.634 285.488L222.749 285.574ZM148.2 411.126C137.218 399.626 139.575 380.392 141.846 369.841C169.906 351.412 206.994 359.289 252.131 393.301C236.951 399.798 170.625 434.384 148.2 411.126ZM175.34 357.622C198.168 332.351 231.173 333.961 265.931 338.244C257.019 358.801 256.243 380.507 263.689 398.217C237.814 378.839 207.253 357.536 175.34 357.536V357.622ZM304.37 423.747C276.051 423.747 260.843 398.878 261.245 371.278C301.495 353.194 336.656 343.937 375.181 341.263C410.371 338.819 434.061 345.231 449.586 361.388C373.744 378.379 342.435 423.661 304.37 423.661V423.747ZM478.25 420.584C450.104 426.938 403.5 410.321 370.38 397.067C423.165 365.902 470.66 354.143 515.481 361.129C519.018 393.243 505.793 414.346 478.25 420.584ZM518.126 377.057C519.619 360.432 516.104 343.742 508.035 329.131C538.913 321.138 564.989 325.796 587.644 343.333C557.888 345.547 527.901 368.777 518.098 377.057H518.126ZM596.327 399.396C578.732 399.396 541.701 382.146 524.653 375.188C542.88 361.388 564.471 346.754 590.461 345.719C600.615 345.092 610.741 347.313 619.7 352.131C627.405 378.121 623.553 399.223 596.298 399.396H596.327Z" fill="#333399"/>
</svg>
