<svg width="18" height="18" viewBox="0 0 18 18" fill="none" xmlns="http://www.w3.org/2000/svg">
<g clip-path="url(#clip0_1_496)">
<path d="M7.5 9.75004C7.82209 10.1806 8.23302 10.5369 8.70491 10.7947C9.17681 11.0526 9.69863 11.2059 10.235 11.2443C10.7713 11.2827 11.3097 11.2053 11.8135 11.0174C12.3173 10.8294 12.7748 10.5353 13.155 10.155L15.405 7.90504C16.0881 7.19778 16.4661 6.25052 16.4575 5.26728C16.449 4.28404 16.0546 3.3435 15.3593 2.64822C14.664 1.95294 13.7235 1.55855 12.7403 1.55001C11.757 1.54146 10.8098 1.91944 10.1025 2.60254L8.8125 3.88504" stroke="#333399" stroke-width="2" stroke-linecap="round" stroke-linejoin="round"/>
<path d="M10.5 8.25003C10.1779 7.81944 9.76701 7.46314 9.29512 7.20533C8.82322 6.94751 8.3014 6.79419 7.76504 6.75578C7.22868 6.71737 6.69034 6.79476 6.18652 6.9827C5.6827 7.17063 5.22519 7.46473 4.84503 7.84503L2.59503 10.095C1.91194 10.8023 1.53396 11.7495 1.5425 12.7328C1.55104 13.716 1.94543 14.6566 2.64071 15.3519C3.33599 16.0471 4.27654 16.4415 5.25977 16.4501C6.24301 16.4586 7.19027 16.0806 7.89753 15.3975L9.18003 14.115" stroke="#333399" stroke-width="2" stroke-linecap="round" stroke-linejoin="round"/>
</g>
<defs>
<clipPath id="clip0_1_496">
<rect width="18" height="18" fill="white"/>
</clipPath>
</defs>
</svg>
