<svg width="14" height="12" viewBox="0 0 14 12" fill="none" xmlns="http://www.w3.org/2000/svg">
<path d="M9.125 10.875V9.79167C9.125 9.21703 8.89673 8.66593 8.4904 8.2596C8.08407 7.85327 7.53297 7.625 6.95833 7.625H3.16667C2.59203 7.625 2.04093 7.85327 1.6346 8.2596C1.22827 8.66593 1 9.21703 1 9.79167V10.875M11.2917 3.83333V7.08333M12.9167 5.45833H9.66667M7.22917 3.29167C7.22917 4.48828 6.25912 5.45833 5.0625 5.45833C3.86588 5.45833 2.89583 4.48828 2.89583 3.29167C2.89583 2.09505 3.86588 1.125 5.0625 1.125C6.25912 1.125 7.22917 2.09505 7.22917 3.29167Z" stroke="white" stroke-linecap="round" stroke-linejoin="round"/>
</svg>
