<svg width="38" height="38" viewBox="0 0 38 38" fill="none" xmlns="http://www.w3.org/2000/svg">
<path d="M5.1537 30.3657C9.13231 28.1168 13.7288 26.8333 18.625 26.8333C23.5212 26.8333 28.1177 28.1168 32.0963 30.3657M24.5 15.0833C24.5 18.328 21.8697 20.9583 18.625 20.9583C15.3803 20.9583 12.75 18.328 12.75 15.0833C12.75 11.8387 15.3803 9.20833 18.625 9.20833C21.8697 9.20833 24.5 11.8387 24.5 15.0833ZM36.25 19C36.25 28.734 28.359 36.625 18.625 36.625C8.89098 36.625 1 28.734 1 19C1 9.26598 8.89098 1.375 18.625 1.375C28.359 1.375 36.25 9.26598 36.25 19Z" stroke="#333399" stroke-width="2" stroke-linecap="round" stroke-linejoin="round"/>
</svg>
