<svg width="362" height="421" viewBox="0 0 362 421" fill="none" xmlns="http://www.w3.org/2000/svg">
<path fill-rule="evenodd" clip-rule="evenodd" d="M348.44 106.676C364.468 147.3 362.723 192.761 358.278 237.516C353.896 281.625 348.536 327.642 323.134 361.459C297.651 395.384 259.619 413.822 221.313 419.851C185.411 425.501 152.262 407.644 118.446 393.674C82.4409 378.8 40.1274 372.256 18.4873 336.061C-3.60733 299.105 -1.98968 249.312 5.45545 204.686C12.4239 162.917 32.3417 125.905 58.5975 95.6408C83.4897 66.949 116.307 53.7294 149.048 39.1749C187.665 22.0085 226.685 -9.81508 265.935 3.47261C306.028 17.0453 331.179 62.9269 348.44 106.676Z" fill="#FEFEAD"/>
</svg>
