<svg width="662" height="636" viewBox="0 0 662 636" fill="none" xmlns="http://www.w3.org/2000/svg">
<path fill-rule="evenodd" clip-rule="evenodd" d="M600.808 435.69C564.059 496.532 505.029 536.057 444.435 571.011C384.715 605.46 321.694 640.254 255.855 634.677C189.807 629.083 131.911 590.952 89.445 540.943C49.6444 494.073 42.0506 429.449 28.939 367.455C14.9781 301.446 -15.247 233.99 10.8008 169.102C37.3956 102.851 101.784 59.1327 164.944 28.6514C224.06 0.121389 288.947 -5.21731 351.073 4.88492C409.971 14.4624 456.53 49.8536 504.706 83.9001C561.527 124.056 637.236 151.238 656.154 220.488C675.477 291.224 640.384 370.167 600.808 435.69Z" fill="#FEFEAD"/>
</svg>
