<svg width="23" height="23" viewBox="0 0 23 23" fill="none" xmlns="http://www.w3.org/2000/svg">
<path d="M11.9792 19.1667C10.7143 19.17 9.46653 18.8745 8.3375 18.3042L2.875 20.125L4.69583 14.6625C4.12556 13.5335 3.83004 12.2857 3.83333 11.0208C3.83392 9.50838 4.25558 8.02593 5.05111 6.73955C5.84663 5.45318 6.98457 4.4137 8.3375 3.73753C9.46653 3.16725 10.7143 2.87173 11.9792 2.87503H12.4583C14.4558 2.98523 16.3425 3.82834 17.7571 5.24293C19.1717 6.65753 20.0148 8.54419 20.125 10.5417M15.8125 11.5V14.8542M15.8125 14.8542V18.2083M15.8125 14.8542H19.1667M15.8125 14.8542H12.4583" stroke="#333399" stroke-width="2" stroke-linecap="round" stroke-linejoin="round"/>
</svg>
